<svg xmlns="http://www.w3.org/2000/svg" viewBox="0 0 24 24" fill="#4CAF50">
  <path d="M21.88 2.15c-.02-.14-.12-.24-.26-.26-.16-.02-.32-.02-.48 0-1.16.1-2.3.35-3.36.72-2.19.77-4.19 2.08-5.85 3.74-1.32 1.32-2.42 2.93-2.92 4.57-.22.7-.31 1.45-.31 2.19 0 3.11 1.73 5.94 4.44 7.35-1.44-2.56-1.96-5.68-.59-8.38.86-1.7 2.72-2.73 4.56-3.31 1.89-.59 3.92-.63 5.87-.33v.01c.31.05.38.43.12.58-2.45 1.37-4.47 3.32-5.63 5.78-1.09 2.31-1.37 5.3.18 7.44.1.14.29.17.44.08.03-.02.05-.04.08-.06 5.33-4.5 7.72-11.69 3.71-19.1z"/>
  <path d="M10.24 8.11c-.01-.16-.15-.28-.31-.27-1.71.19-3.03 1.66-3.03 3.39 0 .26.03.52.09.77.03.14.17.22.31.19.14-.03.22-.17.19-.31-.05-.21-.07-.42-.07-.64 0-1.38 1.05-2.55 2.43-2.71.14-.02.25-.15.23-.29.31-2.86-.16-5.94-2.63-8.09-.12-.1-.3-.09-.4.03-.11.12-.1.3.03.4 2.19 1.91 2.61 4.65 2.34 7.28-2.29.41-3.88 2.56-3.63 4.93.08.86.4 1.67.9 2.35.08.12.25.15.37.07.12-.08.15-.25.07-.37-.43-.59-.71-1.31-.79-2.07-.2-1.95 1-3.76 2.9-4.17z"/>
</svg>
